<svg width="31" height="21" viewBox="0 0 31 21" fill="none" xmlns="http://www.w3.org/2000/svg">
<path d="M29.8152 19.6648H0.98999V20.9181H29.8152V19.6648Z" fill="#F9C731"/>
<path d="M29.3785 2.66487C27.285 1.44475 24.9063 2.09288 23.2798 2.85136L18.431 5.11238L10.0917 0.91806L5.12544 1.13143L12.0117 8.11265L7.62308 10.1974L3.0571 8.45968L0 9.88515L2.76277 13.3159C2.47089 13.6641 2.20638 14.1544 2.44651 14.6694C2.76014 15.3419 3.68712 15.6808 5.20765 15.6808C5.51947 15.6808 5.85628 15.6665 6.21779 15.638C7.88689 15.5061 9.69649 15.0801 10.828 14.5525L28.1605 6.47017C29.6575 5.77204 30.4032 5.039 30.4402 4.22901C30.4594 3.80892 30.2907 3.19638 29.3785 2.66487ZM27.6307 5.33427L10.2983 13.4166C9.3343 13.8662 7.7516 14.2428 6.26623 14.3762C4.74802 14.5125 3.93627 14.3413 3.66569 14.196C3.7214 14.1198 3.82542 13.9999 4.01736 13.831L4.46753 13.4348L1.97929 10.345L3.10636 9.81935L7.67722 11.5591L14.1422 8.488L8.00113 2.26226L9.81969 2.18411L18.4102 6.5047L23.8093 3.98713C25.7811 3.06767 27.4424 2.98721 28.7473 3.74757L28.7474 3.74763C29.0762 3.93919 29.1911 4.10632 29.1881 4.17186C29.188 4.17638 29.1503 4.6258 27.6307 5.33427Z" fill="#F9C731"/>
</svg>
