<svg width="11" height="17" viewBox="0 0 11 17" fill="none" xmlns="http://www.w3.org/2000/svg">
<path fill-rule="evenodd" clip-rule="evenodd" d="M0.902288 5.66251C0.760508 5.80429 0.760508 6.03416 0.902288 6.17594C1.04407 6.31772 1.27394 6.31772 1.41572 6.17594L5.796 1.79566L10.1763 6.17594C10.3181 6.31772 10.5479 6.31772 10.6897 6.17594C10.8315 6.03416 10.8315 5.80429 10.6897 5.66251L6.06883 1.04163C5.99384 0.966639 5.89421 0.931312 5.796 0.935648C5.69779 0.93131 5.59816 0.966637 5.52317 1.04163L0.902288 5.66251Z" fill="#E2E2E1"/>
<path fill-rule="evenodd" clip-rule="evenodd" d="M0.902288 12.1736C0.760508 12.0318 0.760508 11.802 0.902288 11.6602C1.04407 11.5184 1.27394 11.5184 1.41572 11.6602L5.796 16.0405L10.1763 11.6602C10.3181 11.5184 10.5479 11.5184 10.6897 11.6602C10.8315 11.802 10.8315 12.0318 10.6897 12.1736L6.06883 16.7945C5.99384 16.8695 5.89421 16.9048 5.796 16.9005C5.69779 16.9048 5.59816 16.8695 5.52317 16.7945L0.902288 12.1736Z" fill="#E2E2E1"/>
</svg>
