<svg width="20" height="21" viewBox="0 0 20 21" fill="none" xmlns="http://www.w3.org/2000/svg">
<path d="M18.1066 2.36904C18.0657 2.36738 18.0248 2.36711 17.9839 2.36826H16.4417V1.04294C16.4418 0.512815 15.9357 0.199554 15.4056 0.199554H13.9839C13.4538 0.199554 13.0683 0.512815 13.0683 1.04294V2.36821H7.28512V1.04294C7.28512 0.512815 6.89958 0.199554 6.36946 0.199554H4.94774C4.41766 0.199554 3.91161 0.512815 3.91161 1.04294V2.36821H2.36947C1.38504 2.34077 0.564764 3.11659 0.537322 4.10097C0.536169 4.14184 0.536445 4.18279 0.538106 4.22366V18.1514C0.538106 19.2116 1.30917 20.1996 2.36943 20.1996H17.984C19.0442 20.1996 19.8153 19.2116 19.8153 18.1514V4.22366C19.8556 3.23969 19.0906 2.40935 18.1066 2.36904ZM13.9839 1.16341H15.4779V3.814H13.9839V1.16341ZM4.94779 1.16341H6.3213V3.814H4.94779V1.16341ZM18.8514 18.1514C18.8514 18.6815 18.5141 19.2357 17.984 19.2357H2.36947C1.83935 19.2357 1.50201 18.6815 1.50201 18.1514V7.91043H18.8514V18.1514ZM18.8514 4.22366V6.94657H1.50196V4.22366C1.46115 3.77305 1.79336 3.37464 2.24398 3.33383C2.28567 3.33004 2.32764 3.32949 2.36943 3.33212H3.91161V3.86225C3.91161 4.39237 4.41762 4.77791 4.94774 4.77791H6.36946C6.86167 4.79142 7.2716 4.4033 7.28512 3.91109C7.28558 3.89481 7.28558 3.87853 7.28512 3.86225V3.33207H13.0683V3.8622C13.0548 4.35441 13.4429 4.76435 13.9351 4.77786C13.9514 4.77832 13.9677 4.77832 13.9839 4.77786H15.4056C15.9358 4.77786 16.4418 4.39233 16.4418 3.8622V3.33207H17.984C18.4355 3.30362 18.8247 3.64662 18.8531 4.09821C18.8558 4.13999 18.8552 4.18196 18.8514 4.22366Z" fill="#F9C731"/>
<path d="M7.50209 14.4887L7.06836 16.8984C7.0512 17.0017 7.06818 17.1079 7.11674 17.2007C7.24012 17.4366 7.53133 17.5277 7.76716 17.4044L9.93582 16.2718L12.1045 17.4044L12.3213 17.4526C12.4259 17.4544 12.528 17.4204 12.6105 17.3562C12.7545 17.251 12.8286 17.0749 12.8033 16.8983L12.3695 14.4887L14.1286 12.8019C14.2545 12.6659 14.3001 12.4741 14.2491 12.2959C14.1842 12.1313 14.038 12.0125 13.8635 11.9827L11.4539 11.6212L10.3695 9.42843C10.3223 9.33084 10.2435 9.25202 10.1459 9.20479C9.90634 9.08879 9.61813 9.18892 9.50208 9.42843L8.41775 11.6212L6.00811 11.9827C5.83367 12.0125 5.68747 12.1313 5.62257 12.2959C5.57152 12.4741 5.61722 12.6659 5.74304 12.8019L7.50209 14.4887ZM8.82741 12.5369C8.97874 12.5143 9.10696 12.4135 9.16475 12.2719L9.93582 10.7297L10.7069 12.2719C10.7647 12.4135 10.8929 12.5143 11.0442 12.5369L12.7551 12.7779L11.5262 13.9586C11.4117 14.0719 11.358 14.233 11.3816 14.3923L11.6707 16.1032L10.1526 15.2839L9.93577 15.2357L9.7189 15.2839L8.20084 16.1032L8.48998 14.3923C8.5136 14.233 8.45986 14.0719 8.34539 13.9586L7.11647 12.7779L8.82741 12.5369Z" fill="#F9C731"/>
</svg>
