<svg width="20" height="21" viewBox="0 0 20 21" fill="none" xmlns="http://www.w3.org/2000/svg">
<path d="M10 0.91806C4.48601 0.91806 0 5.40407 0 10.9181C0 16.4321 4.48601 20.9181 10 20.9181C15.514 20.9181 20 16.4321 20 10.9181C20 5.40407 15.5141 0.91806 10 0.91806ZM10 19.837C7.55017 19.837 5.32811 18.844 3.71458 17.2396C3.07024 16.5989 2.52328 15.8606 2.09739 15.0491C1.4488 13.8133 1.0811 12.4079 1.0811 10.9181C1.0811 6.00016 5.0821 1.99916 10 1.99916C12.3327 1.99916 14.4586 2.89971 16.0496 4.37094C16.8745 5.13366 17.5556 6.04962 18.0468 7.07341C18.6056 8.23823 18.9189 9.54223 18.9189 10.9181C18.9189 15.836 14.9179 19.837 10 19.837Z" fill="#F9C731"/>
<path d="M6.58198 8.64788C7.16307 8.64788 7.63585 9.09363 7.63585 9.70175H8.71694C8.71694 8.48552 7.75923 7.56679 6.58198 7.56679C5.40474 7.56679 4.44702 8.48552 4.44702 9.70175H5.52812C5.52812 9.09363 6.00096 8.64788 6.58198 8.64788Z" fill="#F9C731"/>
<path d="M13.4179 8.64788C13.999 8.64788 14.4718 9.09363 14.4718 9.70175H15.5529C15.5529 8.48552 14.5952 7.56679 13.4179 7.56679C12.2407 7.56679 11.283 8.48552 11.283 9.70175H12.3641C12.3641 9.09363 12.8368 8.64788 13.4179 8.64788Z" fill="#F9C731"/>
<path d="M9.98098 16.4584C12.0725 16.4584 14.0769 15.3888 15.2246 13.6129L14.3165 13.0262C13.2627 14.6569 11.3344 15.5671 9.40475 15.3443C7.90054 15.1709 6.50951 14.3042 5.68362 13.0262L4.77563 13.6129C5.77497 15.1595 7.45918 16.2082 9.28083 16.4182C9.51469 16.4453 9.7482 16.4584 9.98098 16.4584Z" fill="#F9C731"/>
</svg>
