<svg width="250" height="66" viewBox="0 0 250 66" fill="none" xmlns="http://www.w3.org/2000/svg">
<path fill-rule="evenodd" clip-rule="evenodd" d="M80.1915 61.8888H0.522461V58.0433H80.1915V61.8888Z" fill="#004A96"/>
<path fill-rule="evenodd" clip-rule="evenodd" d="M249.488 61.8888H169.819V58.0433H249.488V61.8888Z" fill="#004A96"/>
<path d="M104.303 54.2247C105.727 54.2247 106.869 54.6406 107.729 55.4725C108.589 56.3044 109.019 57.5382 109.019 59.1738V65.6457H106.375V59.5122C106.375 58.5252 106.143 57.7849 105.677 57.2914C105.212 56.7838 104.549 56.53 103.689 56.53C102.716 56.53 101.948 56.8261 101.384 57.4183C100.82 57.9964 100.538 58.8354 100.538 59.9352V65.6457H97.8943V49.9524H100.538V55.6629C100.975 55.1976 101.511 54.8451 102.145 54.6054C102.794 54.3516 103.513 54.2247 104.303 54.2247Z" fill="#014791"/>
<path d="M116.495 65.7937C115.353 65.7937 114.323 65.547 113.407 65.0535C112.49 64.56 111.771 63.8761 111.25 63.0019C110.742 62.1136 110.488 61.1125 110.488 59.9986C110.488 58.8847 110.742 57.8907 111.25 57.0165C111.771 56.1423 112.49 55.4584 113.407 54.9649C114.323 54.4714 115.353 54.2247 116.495 54.2247C117.651 54.2247 118.687 54.4714 119.604 54.9649C120.52 55.4584 121.232 56.1423 121.74 57.0165C122.262 57.8907 122.522 58.8847 122.522 59.9986C122.522 61.1125 122.262 62.1136 121.74 63.0019C121.232 63.8761 120.52 64.56 119.604 65.0535C118.687 65.547 117.651 65.7937 116.495 65.7937ZM116.495 63.5307C117.468 63.5307 118.271 63.2064 118.906 62.5578C119.54 61.9092 119.858 61.0561 119.858 59.9986C119.858 58.9411 119.54 58.0881 118.906 57.4395C118.271 56.7909 117.468 56.4666 116.495 56.4666C115.522 56.4666 114.718 56.7909 114.084 57.4395C113.463 58.0881 113.153 58.9411 113.153 59.9986C113.153 61.0561 113.463 61.9092 114.084 62.5578C114.718 63.2064 115.522 63.5307 116.495 63.5307Z" fill="#014791"/>
<path d="M130.782 65.0323C130.472 65.2861 130.091 65.4765 129.64 65.6034C129.203 65.7303 128.738 65.7937 128.244 65.7937C127.003 65.7937 126.045 65.4694 125.368 64.8208C124.691 64.1722 124.353 63.2275 124.353 61.9867V56.5512H122.491V54.4362H124.353V51.8559H126.996V54.4362H130.021V56.5512H126.996V61.9233C126.996 62.4732 127.13 62.8962 127.398 63.1923C127.666 63.4743 128.054 63.6153 128.561 63.6153C129.154 63.6153 129.647 63.4602 130.042 63.15L130.782 65.0323Z" fill="#014791"/>
<path d="M142.145 60.0621C142.145 60.2454 142.131 60.5062 142.103 60.8446H133.241C133.396 61.6765 133.798 62.3392 134.446 62.8327C135.109 63.3121 135.927 63.5518 136.9 63.5518C138.141 63.5518 139.163 63.1429 139.967 62.3251L141.384 63.9537C140.876 64.56 140.234 65.0182 139.459 65.3284C138.683 65.6386 137.809 65.7937 136.836 65.7937C135.596 65.7937 134.503 65.547 133.558 65.0535C132.613 64.56 131.88 63.8761 131.359 63.0019C130.851 62.1136 130.597 61.1125 130.597 59.9986C130.597 58.8988 130.844 57.9118 131.337 57.0376C131.845 56.1493 132.543 55.4584 133.431 54.9649C134.32 54.4714 135.321 54.2247 136.435 54.2247C137.534 54.2247 138.514 54.4714 139.374 54.9649C140.249 55.4443 140.925 56.1282 141.405 57.0165C141.898 57.8907 142.145 58.9059 142.145 60.0621ZM136.435 56.3397C135.589 56.3397 134.869 56.5935 134.277 57.1011C133.699 57.5946 133.347 58.2573 133.22 59.0892H139.628C139.515 58.2714 139.17 57.6087 138.592 57.1011C138.014 56.5935 137.295 56.3397 136.435 56.3397Z" fill="#014791"/>
<path d="M143.627 49.9524H146.271V65.6457H143.627V49.9524Z" fill="#014791"/>
<path d="M152.173 65.7937C151.256 65.7937 150.361 65.6739 149.487 65.4342C148.613 65.1945 147.915 64.8913 147.393 64.5247L148.408 62.5155C148.916 62.8539 149.522 63.1288 150.227 63.3403C150.946 63.5377 151.651 63.6364 152.342 63.6364C153.921 63.6364 154.711 63.2205 154.711 62.3886C154.711 61.9938 154.506 61.7188 154.098 61.5637C153.703 61.4086 153.061 61.2606 152.173 61.1196C151.242 60.9786 150.481 60.8164 149.889 60.6331C149.311 60.4498 148.803 60.1326 148.366 59.6814C147.943 59.2161 147.731 58.5745 147.731 57.7567C147.731 56.6851 148.176 55.8321 149.064 55.1976C149.966 54.549 151.179 54.2247 152.702 54.2247C153.477 54.2247 154.253 54.3163 155.028 54.4996C155.804 54.6688 156.438 54.9015 156.932 55.1976L155.916 57.2068C154.958 56.6428 153.879 56.3608 152.681 56.3608C151.905 56.3608 151.313 56.4807 150.904 56.7204C150.509 56.946 150.312 57.2491 150.312 57.6298C150.312 58.0528 150.523 58.356 150.946 58.5393C151.383 58.7085 152.053 58.8706 152.955 59.0257C153.858 59.1667 154.598 59.3289 155.176 59.5122C155.754 59.6955 156.248 60.0057 156.657 60.4428C157.08 60.8799 157.291 61.5003 157.291 62.304C157.291 63.3615 156.833 64.2075 155.916 64.842C155 65.4765 153.752 65.7937 152.173 65.7937Z" fill="#014791"/>
<path d="M14.2666 33.6667C11.5152 33.6667 9.05252 33.0722 6.87855 31.8833C4.73856 30.6945 3.05714 29.064 1.83428 26.9919C0.611427 24.8859 0 22.5081 0 19.8586C0 17.2091 0.611427 14.8483 1.83428 12.7762C3.05714 10.6702 4.73856 9.03975 6.87855 7.88483C9.05252 6.69594 11.5152 6.1015 14.2666 6.1015C16.7123 6.1015 18.8863 6.59404 20.7885 7.57911C22.7247 8.56419 24.2193 9.99085 25.2723 11.8591L21.5528 14.2539C20.7036 12.9631 19.6506 11.995 18.3938 11.3496C17.1369 10.7042 15.7442 10.3815 14.2157 10.3815C12.4493 10.3815 10.8528 10.7721 9.42617 11.5534C8.03347 12.3347 6.92951 13.4556 6.11427 14.9162C5.333 16.3429 4.94237 17.9904 4.94237 19.8586C4.94237 21.7608 5.333 23.4423 6.11427 24.9029C6.92951 26.3295 8.03347 27.4335 9.42617 28.2148C10.8528 28.996 12.4493 29.3867 14.2157 29.3867C15.7442 29.3867 17.1369 29.064 18.3938 28.4186C19.6506 27.7732 20.7036 26.8051 21.5528 25.5143L25.2723 27.8581C24.2193 29.7264 22.7247 31.17 20.7885 32.189C18.8863 33.1741 16.7123 33.6667 14.2666 33.6667Z" fill="#004A96"/>
<path d="M42.7732 33.6667C40.0897 33.6667 37.678 33.0722 35.538 31.8833C33.398 30.6945 31.7166 29.064 30.4937 26.9919C29.3048 24.8859 28.7104 22.5081 28.7104 19.8586C28.7104 17.2091 29.3048 14.8483 30.4937 12.7762C31.7166 10.6702 33.398 9.03975 35.538 7.88483C37.678 6.69594 40.0897 6.1015 42.7732 6.1015C45.4567 6.1015 47.8515 6.69594 49.9575 7.88483C52.0975 9.03975 53.7619 10.6702 54.9508 12.7762C56.1737 14.8483 56.7851 17.2091 56.7851 19.8586C56.7851 22.5081 56.1737 24.8859 54.9508 26.9919C53.7619 29.064 52.0975 30.6945 49.9575 31.8833C47.8515 33.0722 45.4567 33.6667 42.7732 33.6667ZM42.7732 29.3867C44.5056 29.3867 46.0511 28.996 47.4099 28.2148C48.8026 27.3995 49.8895 26.2786 50.6708 24.8519C51.4521 23.3913 51.8427 21.7269 51.8427 19.8586C51.8427 17.9904 51.4521 16.3429 50.6708 14.9162C49.8895 13.4556 48.8026 12.3347 47.4099 11.5534C46.0511 10.7721 44.5056 10.3815 42.7732 10.3815C41.0408 10.3815 39.4783 10.7721 38.0856 11.5534C36.7269 12.3347 35.6399 13.4556 34.8247 14.9162C34.0434 16.3429 33.6528 17.9904 33.6528 19.8586C33.6528 21.7269 34.0434 23.3913 34.8247 24.8519C35.6399 26.2786 36.7269 27.3995 38.0856 28.2148C39.4783 28.996 41.0408 29.3867 42.7732 29.3867Z" fill="#004A96"/>
<path d="M71.2945 33.6667C69.0866 33.6667 66.9636 33.3779 64.9255 32.8005C62.8874 32.1891 61.2909 31.4248 60.136 30.5076L62.1741 26.6353C63.363 27.4845 64.8066 28.1638 66.505 28.6733C68.2034 29.1829 69.9188 29.4376 71.6512 29.4376C75.9312 29.4376 78.0712 28.2148 78.0712 25.7691C78.0712 24.9538 77.7825 24.3084 77.205 23.8329C76.6275 23.3573 75.8972 23.0176 75.0141 22.8138C74.1648 22.5761 72.942 22.3213 71.3455 22.0496C69.1715 21.7099 67.3882 21.3192 65.9955 20.8777C64.6368 20.4361 63.4649 19.6888 62.4798 18.6358C61.4947 17.5827 61.0022 16.1051 61.0022 14.2029C61.0022 11.7572 62.0212 9.80403 64.0593 8.3434C66.0974 6.8488 68.8318 6.1015 72.2626 6.1015C74.063 6.1015 75.8633 6.32229 77.6636 6.76388C79.4639 7.20547 80.9415 7.79991 82.0964 8.54721L80.0074 12.4196C77.7994 10.9929 75.2009 10.2796 72.2117 10.2796C70.1396 10.2796 68.5601 10.6193 67.4731 11.2986C66.3861 11.978 65.8427 12.8781 65.8427 13.9991C65.8427 14.8823 66.1484 15.5786 66.7598 16.0881C67.3712 16.5977 68.1185 16.9713 69.0017 17.2091C69.9188 17.4469 71.1926 17.7186 72.8231 18.0243C74.9971 18.398 76.7464 18.8056 78.0712 19.2472C79.4299 19.6548 80.5848 20.3681 81.5359 21.3872C82.4871 22.4062 82.9626 23.8329 82.9626 25.6672C82.9626 28.1129 81.9096 30.066 79.8036 31.5267C77.7315 32.9533 74.8952 33.6667 71.2945 33.6667Z" fill="#004A96"/>
<path d="M104.259 31.7814C103.546 32.3929 102.663 32.8684 101.61 33.2081C100.557 33.5138 99.4699 33.6667 98.349 33.6667C95.6315 33.6667 93.5255 32.9364 92.0309 31.4757C90.5363 30.0151 89.789 27.926 89.789 25.2086V10.3815H85.2033V6.35626H89.789V0.445801H94.6804V6.35626H102.425V10.3815H94.6804V25.0048C94.6804 26.4654 95.0371 27.5864 95.7504 28.3676C96.4977 29.1489 97.5507 29.5395 98.9095 29.5395C100.404 29.5395 101.678 29.1149 102.731 28.2657L104.259 31.7814Z" fill="#004A96"/>
<path d="M117.918 33.6667C115.71 33.6667 113.587 33.3779 111.549 32.8005C109.511 32.1891 107.914 31.4248 106.759 30.5076L108.797 26.6353C109.986 27.4845 111.43 28.1638 113.128 28.6733C114.827 29.1829 116.542 29.4376 118.275 29.4376C122.554 29.4376 124.694 28.2148 124.694 25.7691C124.694 24.9538 124.406 24.3084 123.828 23.8329C123.251 23.3573 122.521 23.0176 121.637 22.8138C120.788 22.5761 119.565 22.3213 117.969 22.0496C115.795 21.7099 114.011 21.3192 112.619 20.8777C111.26 20.4361 110.088 19.6888 109.103 18.6358C108.118 17.5827 107.625 16.1051 107.625 14.2029C107.625 11.7572 108.645 9.80403 110.683 8.3434C112.721 6.8488 115.455 6.1015 118.886 6.1015C120.686 6.1015 122.487 6.32229 124.287 6.76388C126.087 7.20547 127.565 7.79991 128.72 8.54721L126.631 12.4196C124.423 10.9929 121.824 10.2796 118.835 10.2796C116.763 10.2796 115.183 10.6193 114.096 11.2986C113.009 11.978 112.466 12.8781 112.466 13.9991C112.466 14.8823 112.772 15.5786 113.383 16.0881C113.995 16.5977 114.742 16.9713 115.625 17.2091C116.542 17.4469 117.816 17.7186 119.446 18.0243C121.62 18.398 123.37 18.8056 124.694 19.2472C126.053 19.6548 127.208 20.3681 128.159 21.3872C129.11 22.4062 129.586 23.8329 129.586 25.6672C129.586 28.1129 128.533 30.066 126.427 31.5267C124.355 32.9533 121.518 33.6667 117.918 33.6667Z" fill="#004A96"/>
<path d="M145.533 6.1015C149.269 6.1015 152.123 7.01864 154.093 8.85292C156.097 10.6872 157.099 13.4216 157.099 17.0562V33.361H152.462V29.7943C151.647 31.0511 150.475 32.0192 148.947 32.6986C147.452 33.344 145.669 33.6667 143.597 33.6667C140.573 33.6667 138.145 32.9364 136.31 31.4757C134.51 30.0151 133.61 28.0959 133.61 25.7181C133.61 23.3403 134.476 21.4381 136.208 20.0115C137.941 18.5508 140.692 17.8205 144.463 17.8205H152.208V16.8524C152.208 14.7464 151.596 13.1329 150.373 12.012C149.15 10.891 147.35 10.3305 144.972 10.3305C143.376 10.3305 141.813 10.6023 140.285 11.1458C138.756 11.6553 137.465 12.3516 136.412 13.2348L134.374 9.56625C135.767 8.44531 137.431 7.5961 139.368 7.01864C141.304 6.40721 143.359 6.1015 145.533 6.1015ZM144.412 29.8962C146.28 29.8962 147.894 29.4886 149.252 28.6733C150.611 27.8241 151.596 26.6353 152.208 25.1067V21.3362H144.667C140.522 21.3362 138.45 22.7289 138.45 25.5143C138.45 26.873 138.977 27.943 140.03 28.7243C141.083 29.5056 142.544 29.8962 144.412 29.8962Z" fill="#004A96"/>
<path d="M189.55 6.35626L177.729 33.361H172.736L160.915 6.35626H166.01L175.283 28.011L184.76 6.35626H189.55Z" fill="#004A96"/>
<path d="M217.775 20.0115C217.775 20.3851 217.741 20.8777 217.673 21.4891H195.763C196.069 23.8669 197.105 25.7861 198.871 27.2467C200.672 28.6733 202.897 29.3867 205.546 29.3867C208.773 29.3867 211.372 28.2997 213.342 26.1257L216.042 29.2848C214.819 30.7114 213.291 31.7984 211.457 32.5457C209.656 33.293 207.635 33.6667 205.393 33.6667C202.54 33.6667 200.009 33.0892 197.801 31.9343C195.593 30.7454 193.878 29.0979 192.655 26.9919C191.466 24.8859 190.872 22.5081 190.872 19.8586C190.872 17.2431 191.449 14.8823 192.604 12.7762C193.793 10.6702 195.407 9.03975 197.445 7.88483C199.517 6.69594 201.844 6.1015 204.425 6.1015C207.007 6.1015 209.3 6.69594 211.304 7.88483C213.342 9.03975 214.921 10.6702 216.042 12.7762C217.197 14.8823 217.775 17.294 217.775 20.0115ZM204.425 10.2286C202.081 10.2286 200.111 10.942 198.515 12.3686C196.952 13.7953 196.035 15.6635 195.763 17.9734H213.087C212.815 15.6975 211.881 13.8462 210.285 12.4196C208.722 10.9589 206.769 10.2286 204.425 10.2286Z" fill="#004A96"/>
<path d="M229.254 10.891C230.104 9.32848 231.361 8.13959 233.025 7.32435C234.689 6.50912 236.71 6.1015 239.088 6.1015V10.8401C238.817 10.8061 238.443 10.7891 237.967 10.7891C235.318 10.7891 233.229 11.5874 231.7 13.1839C230.206 14.7464 229.458 16.9883 229.458 19.9096V33.361H224.567V6.35626H229.254V10.891Z" fill="#004A96"/>
<path d="M246.637 33.6666C245.686 33.6666 244.871 33.3439 244.191 32.6985C243.512 32.0192 243.172 31.17 243.172 30.1509C243.172 29.1658 243.512 28.3506 244.191 27.7052C244.871 27.0258 245.686 26.6862 246.637 26.6862C247.588 26.6862 248.386 27.0089 249.032 27.6543C249.677 28.2996 250 29.1319 250 30.1509C250 31.17 249.66 32.0192 248.981 32.6985C248.336 33.3439 247.554 33.6666 246.637 33.6666Z" fill="#F9C731"/>
</svg>
